<svg width="16" height="12" viewBox="0 0 16 12" fill="none" xmlns="http://www.w3.org/2000/svg">
<path d="M6.49954 6.24973C6.49954 6.44751 6.4409 6.64085 6.33101 6.8053C6.22113 6.96975 6.06495 7.09792 5.88223 7.17361C5.6995 7.24929 5.49844 7.2691 5.30445 7.23051C5.11047 7.19193 4.93229 7.09669 4.79244 6.95683C4.65259 6.81698 4.55734 6.6388 4.51876 6.44482C4.48017 6.25084 4.49998 6.04977 4.57566 5.86704C4.65135 5.68432 4.77952 5.52814 4.94397 5.41826C5.10842 5.30838 5.30176 5.24973 5.49954 5.24973C5.76476 5.24973 6.01911 5.35508 6.20665 5.54262C6.39419 5.73016 6.49954 5.98451 6.49954 6.24973ZM9.99954 5.24973C9.80176 5.24973 9.60842 5.30838 9.44397 5.41826C9.27952 5.52814 9.15135 5.68432 9.07566 5.86704C8.99998 6.04977 8.98017 6.25084 9.01876 6.44482C9.05734 6.6388 9.15259 6.81698 9.29244 6.95683C9.43229 7.09669 9.61047 7.19193 9.80445 7.23051C9.99844 7.2691 10.1995 7.24929 10.3822 7.17361C10.565 7.09792 10.7211 6.96975 10.831 6.8053C10.9409 6.64085 10.9995 6.44751 10.9995 6.24973C10.9995 5.98451 10.8942 5.73016 10.7067 5.54262C10.5191 5.35508 10.2648 5.24973 9.99954 5.24973ZM14.7539 10.0347L10.5664 11.8916C10.4093 11.9615 10.2396 11.9985 10.0677 12.0003C9.89581 12.0021 9.72535 11.9686 9.56685 11.9021C9.40835 11.8355 9.26515 11.7372 9.14609 11.6131C9.02703 11.4891 8.93461 11.3421 8.87454 11.181L8.34079 9.73535C8.14517 9.7441 7.94892 9.75035 7.75017 9.75035C7.55142 9.75035 7.35517 9.7441 7.15954 9.73535L6.62454 11.181C6.56418 11.3419 6.47158 11.4888 6.35241 11.6127C6.23325 11.7365 6.09003 11.8348 5.93155 11.9013C5.77307 11.9678 5.60267 12.0013 5.4308 11.9996C5.25892 11.998 5.0892 11.9612 4.93204 11.8916L0.744544 10.0347C0.474644 9.91613 0.255554 9.70566 0.126237 9.44073C-0.0030798 9.1758 -0.0342415 8.87359 0.0382941 8.58785L1.88392 1.31223C1.94415 1.07586 2.07223 0.862273 2.25236 0.697799C2.43249 0.533326 2.65681 0.425149 2.89767 0.386601L5.15142 0.015976C5.46159 -0.0336314 5.77913 0.0338171 6.04235 0.20522C6.30558 0.376623 6.4957 0.639745 6.57579 0.943476L6.85142 2.0316C7.14767 2.01098 7.44642 1.99973 7.74954 1.99973C8.05267 1.99973 8.35142 2.01098 8.64767 2.0316L8.92329 0.943476C9.00326 0.63967 9.19335 0.376462 9.45661 0.205037C9.71987 0.0336124 10.0375 -0.0337764 10.3477 0.015976L12.6014 0.386601C12.8423 0.425149 13.0666 0.533326 13.2467 0.697799C13.4269 0.862273 13.5549 1.07586 13.6152 1.31223L15.4608 8.58598C15.5338 8.87206 15.5028 9.17477 15.3733 9.44011C15.2438 9.70546 15.0243 9.91619 14.7539 10.0347ZM13.9545 8.74973L12.2014 1.84098L10.322 1.53223L10.1445 2.23035C10.3258 2.2666 10.5058 2.30535 10.6827 2.35035C10.7796 2.37302 10.8711 2.41476 10.9517 2.47314C11.0324 2.53153 11.1006 2.60539 11.1524 2.69042C11.2042 2.77545 11.2386 2.86994 11.2535 2.96839C11.2684 3.06683 11.2636 3.16726 11.2392 3.26381C11.2149 3.36037 11.1716 3.45111 11.1119 3.53076C11.0521 3.6104 10.9771 3.67735 10.8912 3.7277C10.8053 3.77805 10.7102 3.81079 10.6116 3.82402C10.5129 3.83724 10.4125 3.83068 10.3164 3.80473C9.47657 3.59799 8.61445 3.49556 7.74954 3.49973C6.88464 3.49556 6.02252 3.59799 5.18267 3.80473C4.99114 3.8495 4.78968 3.81724 4.62171 3.71489C4.45373 3.61255 4.33269 3.44831 4.28465 3.25757C4.23662 3.06683 4.26544 2.86485 4.36491 2.69515C4.46437 2.52546 4.62652 2.40163 4.81642 2.35035C4.99329 2.30535 5.17329 2.2666 5.35454 2.23035L5.17767 1.53223L3.29767 1.84098L1.54454 8.74973L5.30829 10.4185L5.62079 9.57035C5.34767 9.52285 5.07892 9.46723 4.81579 9.40098C4.72026 9.37693 4.63039 9.3343 4.55133 9.27552C4.47227 9.21674 4.40556 9.14297 4.35501 9.05841C4.25292 8.88763 4.22285 8.6833 4.27142 8.49035C4.31999 8.29741 4.44321 8.13166 4.61399 8.02957C4.78476 7.92748 4.9891 7.89741 5.18204 7.94598C6.02215 8.15234 6.88448 8.25436 7.74954 8.24973C8.61445 8.2539 9.47657 8.15146 10.3164 7.94473C10.5094 7.89616 10.7137 7.92623 10.8845 8.02832C11.0553 8.13041 11.1785 8.29616 11.227 8.4891C11.2756 8.68205 11.2455 8.88638 11.1435 9.05716C11.0414 9.22793 10.8756 9.35116 10.6827 9.39973C10.4195 9.46598 10.1508 9.5216 9.87767 9.5691L10.1902 10.4172L13.9545 8.74973Z" fill="white"/>
</svg>
