<svg width="12" height="13" viewBox="0 0 12 13" fill="none" xmlns="http://www.w3.org/2000/svg">
<path d="M11.3885 11.3475L7.57605 5.36L11.3085 1.25438C11.4395 1.10674 11.507 0.913434 11.4964 0.716364C11.4858 0.519295 11.398 0.334346 11.2519 0.201615C11.1059 0.0688842 10.9134 -0.000929939 10.7162 0.00730848C10.519 0.0155469 10.333 0.101174 10.1985 0.245625L6.74417 4.04813L4.38855 0.3475C4.32085 0.24106 4.2274 0.153415 4.11684 0.0926735C4.00628 0.0319325 3.88219 5.8162e-05 3.75605 0H0.756048C0.621697 6.19276e-05 0.489829 0.0362117 0.374229 0.104671C0.258628 0.173129 0.163539 0.271384 0.0989006 0.389163C0.0342623 0.506943 0.00244848 0.639923 0.00678424 0.774204C0.01112 0.908485 0.0514462 1.03914 0.123548 1.1525L3.93605 7.14L0.201048 11.2456C0.133423 11.3183 0.0808883 11.4036 0.0464893 11.4967C0.0120902 11.5898 -0.00348925 11.6888 0.000653783 11.788C0.00479682 11.8871 0.02858 11.9845 0.0706249 12.0744C0.11267 12.1643 0.17214 12.2449 0.245589 12.3117C0.319038 12.3784 0.405004 12.43 0.498506 12.4632C0.592008 12.4965 0.691186 12.5109 0.79029 12.5056C0.889395 12.5002 0.986456 12.4753 1.07585 12.4322C1.16524 12.3891 1.24518 12.3286 1.31105 12.2544L4.76792 8.45188L7.12355 12.1525C7.19125 12.2589 7.2847 12.3466 7.39525 12.4073C7.50581 12.4681 7.6299 12.4999 7.75605 12.5H10.756C10.8904 12.4999 11.0223 12.4638 11.1379 12.3953C11.2535 12.3269 11.3486 12.2286 11.4132 12.1108C11.4778 11.9931 11.5096 11.8601 11.5053 11.7258C11.501 11.5915 11.4606 11.4609 11.3885 11.3475ZM8.16792 11L2.1223 1.5H3.34417L9.3898 11H8.16792Z" fill="white"/>
</svg>
